<svg xmlns="http://www.w3.org/2000/svg" viewBox="0 0 206 46" width="206" height="46"><g fill="#9da4ac"><path d="M103.01 31.99c20.63 0 41.27 0 61.9-.01.62 0 .82.11.81.78-.05 2.24-.03 4.49-.01 6.73 0 .43-.09.63-.56.58-.32-.04-.64-.01-.96-.01H41.15c-.98 0-.86.13-.86-.84 0-2.18.02-4.36-.01-6.54-.01-.56.13-.7.7-.7 18.73.02 37.46.01 56.19.01h5.84zM54.28 5.97c4.42 0 8.85-.06 13.27.02 2.67.05 5.32.44 7.75 1.66 3.05 1.52 4.81 4.06 5.31 7.37.8 5.4-2.47 9.95-7.97 11.31-2.12.52-4.29.75-6.46.75-8.4.04-16.8.01-25.2.03-.59 0-.69-.17-.69-.71.02-6.63.02-13.25 0-19.88 0-.48.11-.6.59-.6 4.47.02 8.93.01 13.4.01v.04zm-.2 10.62v4.55c0 .3.03.47.41.47 2.27-.02 4.53.04 6.8-.03 3.15-.1 4.84-2.43 4.97-4.7.16-2.85-2.03-5.21-4.97-5.27-2.24-.05-4.49 0-6.73-.03-.43-.01-.48.17-.47.52 0 1.5-.01 2.99-.01 4.49zM126.09 27.21H98.63c1.13-1.88 2.23-3.72 3.33-5.56.17-.28.43-.22.69-.22h7.12c.08-.3-.13-.46-.24-.64-1.8-2.96-3.62-5.92-5.42-8.89-.27-.44-.38-.49-.67 0-2.99 4.98-6.01 9.94-9.02 14.92-.16.27-.29.45-.67.45-4.23-.02-8.47-.01-12.7-.01-.06 0-.12-.01-.27-.03.69-1.16 1.37-2.28 2.04-3.41 3.49-5.8 6.99-11.59 10.47-17.39.22-.36.43-.49.85-.49 6.29.01 12.57.01 18.86 0 .37 0 .61.07.82.43 4.04 6.83 8.1 13.65 12.16 20.48.05.09.17.18.11.36zM147.34 5.94c5.86 0 11.72.01 17.58-.01.53 0 .68.11.67.66-.04 1.56-.01 3.12-.01 4.68 0 .83 0 .83-.86.83-6.91 0-13.81.01-20.72-.02-.6 0-.76.16-.72.74.05.81.05 1.63 0 2.44-.03.54.15.67.67.67 4.23-.02 8.47-.01 12.7-.01 2.69 0 5.39.01 8.08-.01.49 0 .6.14.59.61-.03 1.54-.04 3.08 0 4.62.01.53-.17.63-.65.63-6.89-.01-13.77 0-20.66-.02-.58 0-.76.14-.74.73.05 1.43 0 2.87.02 4.3.01.39-.11.5-.5.5-4.36-.01-8.72-.01-13.09 0-.39 0-.51-.1-.51-.5.01-6.78.01-13.56 0-20.34 0-.54.28-.49.64-.49 5.84-.01 11.67-.01 17.51-.01z"/></g></svg>